<svg width="18" height="18" viewBox="0 0 18 18" fill="none" xmlns="http://www.w3.org/2000/svg">
<g clip-path="url(#clip0_2345_48599)">
<path d="M0.20598 2.11429C0.0644582 2.11109 -0.0702102 2.05025 -0.16908 1.94483C-0.267949 1.83941 -0.323126 1.69784 -0.322752 1.55054C-0.320407 1.40538 -0.263949 1.26685 -0.165296 1.16419C-0.0666433 1.06153 0.0664835 1.00278 0.20598 1.00034H0.987357C1.44166 0.992686 1.88932 1.11453 2.28184 1.35268C2.99029 1.82022 3.11661 2.48831 3.29763 3.24179H15.1485C15.2886 3.24215 15.4229 3.30023 15.522 3.40333C15.6211 3.50644 15.6769 3.64617 15.6772 3.79199C15.6751 3.84943 15.6659 3.90635 15.6499 3.96138L14.2708 9.75608C14.2446 9.87861 14.1783 9.98788 14.0833 10.0652C13.9883 10.1426 13.8704 10.1832 13.7498 10.1802H5.08308C5.27321 10.9134 5.46335 11.3077 5.7199 11.4907C6.03245 11.7062 6.57941 11.717 7.4819 11.7062H13.6196C13.7598 11.7062 13.8943 11.7641 13.9935 11.8673C14.0926 11.9705 14.1484 12.1104 14.1484 12.2564C14.1484 12.4023 14.0926 12.5422 13.9935 12.6454C13.8943 12.7486 13.7598 12.8066 13.6196 12.8066H7.49102C6.36714 12.8201 5.67562 12.7917 5.12084 12.4122C4.56606 12.0328 4.25351 11.3403 3.95529 10.1084L2.1438 2.95991C2.1438 2.94636 2.1438 2.94636 2.12947 2.93145C2.10569 2.80293 2.0575 2.68064 1.98773 2.57173C1.91796 2.46283 1.82802 2.36951 1.72315 2.29724C1.49663 2.165 1.23899 2.10161 0.979543 2.11429H0.20598ZM11.6857 4.33947H3.59325L4.79918 9.06359H13.3513L14.4765 4.33947H11.6857ZM12.0347 13.4476C12.2923 13.4476 12.5441 13.527 12.7582 13.6759C12.9724 13.8249 13.1393 14.0365 13.2379 14.2841C13.3365 14.5317 13.3622 14.8042 13.312 15.0671C13.2617 15.33 13.1377 15.5714 12.9556 15.761C12.7735 15.9505 12.5414 16.0796 12.2888 16.1319C12.0362 16.1841 11.7743 16.1573 11.5364 16.0547C11.2984 15.9522 11.095 15.7785 10.9519 15.5556C10.8088 15.3328 10.7324 15.0708 10.7324 14.8027C10.7324 14.4433 10.8696 14.0986 11.1139 13.8445C11.3581 13.5903 11.6893 13.4476 12.0347 13.4476ZM6.33067 13.4476C6.58824 13.4476 6.84003 13.527 7.05419 13.6759C7.26835 13.8249 7.43527 14.0365 7.53384 14.2841C7.63241 14.5317 7.6582 14.8042 7.60795 15.0671C7.5577 15.33 7.43367 15.5714 7.25154 15.761C7.06941 15.9505 6.83736 16.0796 6.58474 16.1319C6.33212 16.1841 6.07027 16.1573 5.83231 16.0547C5.59434 15.9522 5.39095 15.7785 5.24786 15.5556C5.10476 15.3328 5.02838 15.0708 5.02838 14.8027C5.02838 14.4433 5.16558 14.0986 5.40981 13.8445C5.65404 13.5903 5.98528 13.4476 6.33067 13.4476Z" fill="#101010"/>
</g>
<defs>
<clipPath id="clip0_2345_48599">
<rect width="18" height="18" fill="white"/>
</clipPath>
</defs>
</svg>
