<svg width="18" height="18" viewBox="0 0 18 18" fill="none" xmlns="http://www.w3.org/2000/svg">
<g clip-path="url(#clip0_2345_48577)">
<path d="M13.2899 8.28773C13.2899 5.91429 11.3675 3.99023 8.99614 3.99023C6.62477 3.99023 4.70239 5.91429 4.70239 8.28773V11.1452C4.70239 13.5187 6.62477 15.4427 8.99614 15.4427C11.3675 15.4427 13.2899 13.5187 13.2899 11.1452V8.28773Z" stroke="#101010" stroke-width="1.2" stroke-miterlimit="10"/>
<path d="M13.2976 6.85547H14.7301C15.299 6.85547 15.8446 7.08146 16.2469 7.48372C16.6491 7.88599 16.8751 8.43158 16.8751 9.00047V10.433C16.8751 11.0019 16.6491 11.5474 16.2469 11.9497C15.8446 12.352 15.299 12.578 14.7301 12.578H13.2976V6.85547Z" stroke="#101010" stroke-width="1.2" stroke-miterlimit="10"/>
<path d="M4.70239 12.5771H3.26989C2.701 12.5771 2.15541 12.3512 1.75315 11.9489C1.35088 11.5466 1.12489 11.001 1.12489 10.4321V8.99965C1.12489 8.71796 1.18037 8.43904 1.28817 8.17879C1.39597 7.91855 1.55397 7.68209 1.75315 7.4829C1.95233 7.28372 2.18879 7.12572 2.44904 7.01793C2.70928 6.91013 2.98821 6.85465 3.26989 6.85465H4.70239L4.70239 12.5771Z" stroke="#101010" stroke-width="1.2" stroke-miterlimit="10"/>
<path d="M3.27002 6.855C3.27002 5.33531 3.87371 3.87786 4.9483 2.80328C6.02288 1.72869 7.48033 1.125 9.00002 1.125C10.5197 1.125 11.9772 1.72869 13.0517 2.80328C14.1263 3.87786 14.73 5.33531 14.73 6.855" stroke="#101010" stroke-width="1.2" stroke-miterlimit="10"/>
<path d="M14.73 12.5771V13.3271C14.728 14.2766 14.3495 15.1866 13.6774 15.8573C13.0052 16.528 12.0945 16.9047 11.145 16.9046" stroke="#101010" stroke-width="1.2" stroke-miterlimit="10"/>
</g>
<defs>
<clipPath id="clip0_2345_48577">
<rect width="18" height="18" fill="white"/>
</clipPath>
</defs>
</svg>
