<svg width="18" height="18" viewBox="0 0 18 18" fill="none" xmlns="http://www.w3.org/2000/svg">
<path d="M15.3151 3.43436C14.9388 3.05679 14.4917 2.75721 13.9994 2.5528C13.5071 2.34839 12.9794 2.24316 12.4463 2.24316C11.9133 2.24316 11.3855 2.34839 10.8932 2.5528C10.4009 2.75721 9.95382 3.05679 9.57757 3.43436L9.00007 4.01936L8.42256 3.43436C8.04631 3.05679 7.59921 2.75721 7.10693 2.5528C6.61465 2.34839 6.08685 2.24316 5.55381 2.24316C5.02078 2.24316 4.49298 2.34839 4.0007 2.5528C3.50841 2.75721 3.06132 3.05679 2.68506 3.43436C1.09506 5.02436 0.997565 7.70936 3.00006 9.74936L9.00007 15.7494L15.0001 9.74936C17.0026 7.70936 16.9051 5.02436 15.3151 3.43436Z" stroke="#2B8F65" stroke-width="1.33333" stroke-linecap="round" stroke-linejoin="round"/>
</svg>
