<svg width="30" height="30" viewBox="0 0 30 30" fill="none" xmlns="http://www.w3.org/2000/svg">
<rect width="30" height="30" rx="5" fill="#2B8F65"/>
<path d="M6.52873 9.10268C6.38721 9.09952 6.25254 9.03931 6.15367 8.93499C6.05481 8.83067 5.99963 8.69057 6 8.5448C6.00235 8.40116 6.05881 8.26407 6.15746 8.16248C6.25611 8.06089 6.38924 8.00275 6.52873 8.00034H7.31011C7.76442 7.99276 8.21207 8.11334 8.60459 8.34901C9.31304 8.81167 9.43936 9.47281 9.62038 10.2184H21.4713C21.6114 10.2188 21.7457 10.2763 21.8448 10.3783C21.9438 10.4803 21.9997 10.6186 22 10.7629C21.9978 10.8197 21.9886 10.8761 21.9727 10.9305L20.5935 16.6649C20.5673 16.7861 20.5011 16.8943 20.4061 16.9708C20.3111 17.0474 20.1932 17.0876 20.0726 17.0846H11.4058C11.596 17.8101 11.7861 18.2004 12.0427 18.3814C12.3552 18.5946 12.9022 18.6054 13.8047 18.5946H19.9424C20.0826 18.5946 20.2171 18.652 20.3162 18.7541C20.4154 18.8562 20.4711 18.9947 20.4711 19.1391C20.4711 19.2835 20.4154 19.422 20.3162 19.5241C20.2171 19.6262 20.0826 19.6836 19.9424 19.6836H13.8138C12.6899 19.697 11.9984 19.6688 11.4436 19.2933C10.8888 18.9178 10.5763 18.2326 10.278 17.0135L8.46655 9.9395C8.46655 9.92609 8.46655 9.92609 8.45222 9.91133C8.42844 9.78415 8.38026 9.66313 8.31049 9.55536C8.24072 9.44759 8.15077 9.35525 8.04591 9.28372C7.81939 9.15287 7.56174 9.09014 7.3023 9.10268H6.52873ZM16.9888 12.4553C17.0063 12.368 17.0526 12.2896 17.1197 12.2333C17.1868 12.177 17.2707 12.1463 17.3573 12.1463C17.4439 12.1463 17.5278 12.177 17.5949 12.2333C17.6621 12.2896 17.7083 12.368 17.7259 12.4553V14.5621C17.7083 14.6494 17.6621 14.7278 17.5949 14.7841C17.5278 14.8404 17.4439 14.8711 17.3573 14.8711C17.2707 14.8711 17.1868 14.8404 17.1197 14.7841C17.0526 14.7278 17.0063 14.6494 16.9888 14.5621V12.458V12.4553ZM14.7814 12.4553C14.7983 12.3673 14.8443 12.288 14.9117 12.2311C14.979 12.1741 15.0634 12.143 15.1506 12.143C15.2377 12.143 15.3221 12.1741 15.3895 12.2311C15.4568 12.288 15.5029 12.3673 15.5198 12.4553V14.5621C15.5029 14.6501 15.4568 14.7294 15.3895 14.7863C15.3221 14.8433 15.2377 14.8744 15.1506 14.8744C15.0634 14.8744 14.979 14.8433 14.9117 14.7863C14.8443 14.7294 14.7983 14.6501 14.7814 14.5621V12.458V12.4553ZM12.5753 12.4553C12.5928 12.368 12.6391 12.2896 12.7062 12.2333C12.7733 12.177 12.8573 12.1463 12.9438 12.1463C13.0304 12.1463 13.1143 12.177 13.1815 12.2333C13.2486 12.2896 13.2948 12.368 13.3124 12.4553V14.5621C13.2948 14.6494 13.2486 14.7278 13.1815 14.7841C13.1143 14.8404 13.0304 14.8711 12.9438 14.8711C12.8573 14.8711 12.7733 14.8404 12.7062 14.7841C12.6391 14.7278 12.5928 14.6494 12.5753 14.5621V12.458V12.4553ZM18.0085 11.3047H9.916L11.1219 15.9796H19.6741L20.7993 11.3047H18.0085ZM18.3575 20.3179C18.6151 20.3179 18.8668 20.3965 19.081 20.5439C19.2952 20.6913 19.4621 20.9007 19.5606 21.1457C19.6592 21.3908 19.685 21.6604 19.6348 21.9206C19.5845 22.1807 19.4605 22.4197 19.2783 22.6072C19.0962 22.7948 18.8642 22.9225 18.6115 22.9742C18.3589 23.026 18.0971 22.9994 17.8591 22.8979C17.6212 22.7964 17.4178 22.6245 17.2747 22.404C17.1316 22.1835 17.0552 21.9242 17.0552 21.6589C17.0552 21.3033 17.1924 20.9622 17.4366 20.7107C17.6808 20.4592 18.0121 20.3179 18.3575 20.3179ZM12.6534 20.3179C12.911 20.3179 13.1628 20.3965 13.3769 20.5439C13.5911 20.6913 13.758 20.9007 13.8566 21.1457C13.9552 21.3908 13.9809 21.6604 13.9307 21.9206C13.8805 22.1807 13.7564 22.4197 13.5743 22.6072C13.3922 22.7948 13.1601 22.9225 12.9075 22.9742C12.6549 23.026 12.393 22.9994 12.1551 22.8979C11.9171 22.7964 11.7137 22.6245 11.5706 22.404C11.4275 22.1835 11.3511 21.9242 11.3511 21.6589C11.3511 21.3033 11.4883 20.9622 11.7326 20.7107C11.9768 20.4592 12.308 20.3179 12.6534 20.3179Z" fill="white"/>
</svg>
