<svg width="17" height="16" viewBox="0 0 17 16" fill="none" xmlns="http://www.w3.org/2000/svg">
<path d="M0.784593 1.11429C0.643071 1.11109 0.508403 1.05025 0.409534 0.944831C0.310664 0.839414 0.255487 0.697839 0.255861 0.550538C0.258206 0.405378 0.314665 0.266846 0.413317 0.164188C0.51197 0.0615303 0.645097 0.00277973 0.784593 0.000339558H1.56597C2.02028 -0.00731366 2.46793 0.114534 2.86045 0.352683C3.5689 0.820216 3.69522 1.48831 3.87624 2.24179H15.7271C15.8673 2.24215 16.0015 2.30023 16.1006 2.40333C16.1997 2.50644 16.2555 2.64617 16.2559 2.79199C16.2537 2.84943 16.2445 2.90635 16.2285 2.96138L14.8494 8.75608C14.8232 8.87861 14.7569 8.98788 14.6619 9.06524C14.5669 9.14259 14.4491 9.18324 14.3285 9.18025H5.66169C5.85182 9.91339 6.04196 10.3077 6.29851 10.4907C6.61106 10.7062 7.15803 10.717 8.06052 10.7062H14.1982C14.3385 10.7062 14.4729 10.7641 14.5721 10.8673C14.6713 10.9705 14.727 11.1104 14.727 11.2564C14.727 11.4023 14.6713 11.5422 14.5721 11.6454C14.4729 11.7486 14.3385 11.8066 14.1982 11.8066H8.06963C6.94575 11.8201 6.25423 11.7917 5.69946 11.4122C5.14468 11.0328 4.83213 10.3403 4.5339 9.10842L2.72241 1.95991C2.72241 1.94636 2.72241 1.94636 2.70808 1.93145C2.6843 1.80293 2.63612 1.68064 2.56635 1.57173C2.49658 1.46283 2.40663 1.36951 2.30177 1.29724C2.07525 1.165 1.8176 1.10161 1.55816 1.11429H0.784593ZM12.2643 3.33947H4.17186L5.37779 8.06359H13.93L15.0551 3.33947H12.2643ZM12.6133 12.4476C12.8709 12.4476 13.1227 12.527 13.3369 12.6759C13.551 12.8249 13.7179 13.0365 13.8165 13.2841C13.9151 13.5317 13.9409 13.8042 13.8906 14.0671C13.8404 14.33 13.7163 14.5714 13.5342 14.761C13.3521 14.9505 13.12 15.0796 12.8674 15.1319C12.6148 15.1841 12.3529 15.1573 12.115 15.0547C11.877 14.9522 11.6736 14.7785 11.5305 14.5556C11.3874 14.3328 11.311 14.0708 11.311 13.8027C11.311 13.4433 11.4483 13.0986 11.6925 12.8445C11.9367 12.5903 12.268 12.4476 12.6133 12.4476ZM6.90929 12.4476C7.16686 12.4476 7.41864 12.527 7.6328 12.6759C7.84697 12.8249 8.01388 13.0365 8.11245 13.2841C8.21102 13.5317 8.23681 13.8042 8.18656 14.0671C8.13631 14.33 8.01228 14.5714 7.83015 14.761C7.64802 14.9505 7.41597 15.0796 7.16335 15.1319C6.91073 15.1841 6.64888 15.1573 6.41092 15.0547C6.17296 14.9522 5.96957 14.7785 5.82647 14.5556C5.68337 14.3328 5.60699 14.0708 5.60699 13.8027C5.60699 13.4433 5.7442 13.0986 5.98843 12.8445C6.23265 12.5903 6.5639 12.4476 6.90929 12.4476Z" fill="#101010"/>
</svg>
