<svg width="32" height="32" viewBox="0 0 32 32" fill="none" xmlns="http://www.w3.org/2000/svg">
<path d="M27.7335 5.33301H4.26686C3.62686 5.33301 3.2002 5.75967 3.2002 6.39967V19.1997C3.2002 19.8397 3.62686 20.2663 4.26686 20.2663H27.7335C28.3735 20.2663 28.8002 19.8397 28.8002 19.1997V6.39967C28.8002 5.75967 28.3735 5.33301 27.7335 5.33301ZM5.86686 14.933C5.65353 14.933 5.4402 14.933 5.33353 15.0397V10.5597C5.4402 10.6663 5.65353 10.6663 5.86686 10.6663C7.3602 10.6663 8.53353 9.49301 8.53353 7.99967C8.53353 7.78634 8.53353 7.57301 8.42686 7.46634H23.4669C23.4669 7.57301 23.4669 7.78634 23.4669 7.99967C23.4669 9.49301 24.6402 10.6663 26.1335 10.6663C26.3469 10.6663 26.5602 10.6663 26.6669 10.5597V14.933C26.5602 14.933 26.3469 14.8263 26.1335 14.8263C24.6402 14.8263 23.4669 15.9997 23.4669 17.493C23.4669 17.7063 23.4669 17.9197 23.5735 18.0263H8.42686C8.53353 18.0263 8.53353 17.813 8.53353 17.5997C8.53353 16.1063 7.3602 14.933 5.86686 14.933ZM12.8002 12.7997C12.8002 10.9863 14.1869 9.59967 16.0002 9.59967C17.8135 9.59967 19.2002 10.9863 19.2002 12.7997C19.2002 14.613 17.8135 15.9997 16.0002 15.9997C14.1869 15.9997 12.8002 14.613 12.8002 12.7997ZM5.33353 23.4663V22.3997H26.6669V23.4663C26.6669 24.1063 26.2402 24.533 25.6002 24.533H6.4002C5.7602 24.533 5.33353 24.1063 5.33353 23.4663ZM7.89353 27.733V26.6663H23.8935V27.733C23.8935 28.373 23.4669 28.7997 22.8269 28.7997H8.9602C8.3202 28.7997 7.89353 28.373 7.89353 27.733Z" fill="#17B978"/>
</svg>
