<svg width="94" height="94" viewBox="0 0 94 94" fill="none" xmlns="http://www.w3.org/2000/svg">
<g clip-path="url(#clip0_516_977)">
<path d="M94 47C94 46.429 93.9897 45.8602 93.9697 45.2942C93.0717 20.127 72.3864 0 47 0C21.6136 0 0.92825 20.127 0.0304766 45.2942C0.0102812 45.8602 0 46.429 0 47C0 72.9574 24.1429 92.2944 47 92.2944C70.2712 92.2944 94 72.9574 94 47Z" fill="#2b8f65"/>
<path d="M47 90.5884C21.6139 90.5884 0.932289 70.4608 0.0341484 45.2939C0.0137695 45.8605 0 46.4284 0 46.9997C0 72.9571 21.0426 93.9997 47 93.9997C72.9574 93.9997 94 72.9571 94 46.9997C94 46.4284 93.9862 45.8605 93.966 45.2941C93.0677 70.461 72.3861 90.5884 47 90.5884Z" fill="#A07C41"/>
<path d="M86.1823 45.2944C85.2893 24.4259 68.0884 7.78125 46.9999 7.78125C25.9114 7.78125 8.71053 24.4259 7.81753 45.2944C7.79329 45.8601 7.81734 83.7244 46.9999 83.7244C86.1825 83.7244 86.2065 45.8601 86.1823 45.2944Z" fill="white"/>
<path d="M47.0002 82.8073C25.9119 82.8073 8.71372 66.1623 7.82036 45.2939C7.79612 45.8598 7.78125 46.4278 7.78125 46.9995C7.78125 68.6596 25.3402 86.2185 47.0002 86.2185C68.6602 86.2185 86.2191 68.6597 86.2191 46.9997C86.2191 46.428 86.2041 45.8598 86.18 45.2941C85.2866 66.1625 68.0885 82.8073 47.0002 82.8073Z" fill="#DEDEDE"/>
<path d="M61.2455 33.2398C60.1276 32.1373 58.3277 32.1496 57.2254 33.2673L50.5547 40.0304L51.225 43.25L54.3409 44.2881L61.2733 37.2599C62.3755 36.1422 62.3632 34.3423 61.2455 33.2398Z" fill="#405B6C"/>
<path d="M42.9757 40.2891L27.8472 26.8074C26.675 25.7628 24.8782 25.8663 23.8337 27.0386C22.7892 28.2106 22.8926 30.0076 24.0648 31.0521L39.4913 44.7992L42.7059 43.727L42.9757 40.2891Z" fill="#405B6C"/>
<path d="M67.1294 65.3293C66.8067 65.3293 66.4825 65.22 66.2159 64.9962L48.2103 49.8721C47.6094 49.3672 47.5312 48.4706 48.0361 47.8697C48.541 47.2684 49.4374 47.1904 50.0387 47.6954L68.0443 62.8197C68.6452 63.3246 68.7234 64.2213 68.2185 64.8222C67.9374 65.1569 67.5348 65.3293 67.1294 65.3293Z" fill="#B0B0B0"/>
<path d="M39.4902 44.7992L42.145 47.165L45.5543 46.0065L45.3695 42.423L42.9748 40.2891C41.3087 41.2902 40.0476 42.8943 39.4902 44.7992Z" fill="#2D4456"/>
<path d="M50.5559 40.0303L48.2988 42.3186V46.8104H51.8543L54.3424 44.288C53.6587 42.4381 52.2951 40.9192 50.5559 40.0303Z" fill="#2D4456"/>
<path d="M51.5505 45.2937C50.8599 43.4523 49.0832 42.1416 47.0005 42.1416C44.9178 42.1416 43.1412 43.4523 42.4505 45.2937C42.2515 45.8245 42.4373 50.152 47.0005 50.152C51.5638 50.152 51.7496 45.8245 51.5505 45.2937Z" fill="#2b8f65"/>
<path d="M47.0007 48.4463C44.918 48.4463 43.1421 47.1354 42.4514 45.2939C42.2522 45.8247 42.1426 46.3992 42.1426 46.9995C42.1426 49.6826 44.3176 51.8574 47.0005 51.8574C49.6835 51.8574 51.8584 49.6824 51.8584 46.9995C51.8584 46.3992 51.7488 45.8247 51.5497 45.2939C50.8593 47.1352 49.0833 48.4463 47.0007 48.4463Z" fill="#A07C41"/>
<path d="M48.4244 17.1791V12.7679C48.4244 11.9814 47.7868 11.3438 47.0003 11.3438C46.2138 11.3438 45.5762 11.9814 45.5762 12.7679V17.1791C45.5762 17.9656 46.2136 18.6032 47.0003 18.6032C47.787 18.6032 48.4244 17.9656 48.4244 17.1791Z" fill="#405B6C"/>
<path d="M45.5762 76.8206V81.2318C45.5762 82.0183 46.2136 82.656 47.0003 82.656C47.787 82.656 48.4244 82.0183 48.4244 81.2318V76.8206C48.4244 76.0341 47.7868 75.3965 47.0003 75.3965C46.2138 75.3965 45.5762 76.0341 45.5762 76.8206Z" fill="#405B6C"/>
<path d="M81.2318 48.4235C82.0185 48.4235 82.656 47.7859 82.656 46.9993C82.656 46.2128 82.0183 45.5752 81.2318 45.5752H76.8206C76.0341 45.5752 75.3965 46.2128 75.3965 46.9993C75.3965 47.7859 76.0341 48.4235 76.8206 48.4235H81.2318Z" fill="#405B6C"/>
<path d="M12.7679 45.5752C11.9812 45.5752 11.3438 46.2128 11.3438 46.9993C11.3438 47.7859 11.9812 48.4235 12.7679 48.4235H17.1791C17.9658 48.4235 18.6032 47.7859 18.6032 46.9993C18.6032 46.2128 17.9656 45.5752 17.1791 45.5752H12.7679Z" fill="#405B6C"/>
</g>
<defs>
<clipPath id="clip0_516_977">
<rect width="94" height="94" fill="white"/>
</clipPath>
</defs>
</svg>
