<svg width="24" height="24" viewBox="0 0 24 24" fill="none" xmlns="http://www.w3.org/2000/svg">
<path d="M10 19V13.3661C10 13.1841 10 13.0931 9.97958 13.006C9.96147 12.9288 9.93151 12.8541 9.89052 12.7838C9.84431 12.7047 9.77934 12.6337 9.64939 12.4915L6.35061 8.88348C6.22066 8.74135 6.15569 8.67028 6.10948 8.59115C6.06849 8.52094 6.03853 8.4462 6.02042 8.36898C6 8.28193 6 8.19092 6 8.00891V6.4C6 5.90996 6 5.66493 6.10899 5.47776C6.20487 5.31312 6.35785 5.17926 6.54601 5.09537C6.75992 5 7.03995 5 7.6 5H16.4C16.9601 5 17.2401 5 17.454 5.09537C17.6422 5.17926 17.7951 5.31312 17.891 5.47776C18 5.66493 18 5.90996 18 6.4V8.00891C18 8.19092 18 8.28193 17.9796 8.36898C17.9615 8.4462 17.9315 8.52094 17.8905 8.59115C17.8443 8.67028 17.7793 8.74135 17.6494 8.88348L14.3506 12.4915C14.2207 12.6337 14.1557 12.7047 14.1095 12.7838C14.0685 12.8541 14.0385 12.9288 14.0204 13.006C14 13.0931 14 13.1841 14 13.3661V16.375L10 19Z" stroke="#6C757D" stroke-width="1.8" stroke-linecap="round" stroke-linejoin="round"/>
<path fill-rule="evenodd" clip-rule="evenodd" d="M16 19H20V17H16V19Z" fill="#6C757D"/>
<path fill-rule="evenodd" clip-rule="evenodd" d="M16 15H20V13H16V15Z" fill="#6C757D"/>
</svg>
