<svg width="17" height="18" viewBox="0 0 17 18" fill="none" xmlns="http://www.w3.org/2000/svg">
<path d="M11.3333 16.6149H5.66667C3.08125 16.6149 1.59375 15.1274 1.59375 12.542V5.45866C1.59375 2.87324 3.08125 1.38574 5.66667 1.38574H11.3333C13.9187 1.38574 15.4062 2.87324 15.4062 5.45866V12.542C15.4062 15.1274 13.9187 16.6149 11.3333 16.6149ZM5.66667 2.44824C3.64083 2.44824 2.65625 3.43283 2.65625 5.45866V12.542C2.65625 14.5678 3.64083 15.5524 5.66667 15.5524H11.3333C13.3592 15.5524 14.3438 14.5678 14.3438 12.542V5.45866C14.3438 3.43283 13.3592 2.44824 11.3333 2.44824H5.66667Z" fill="#667085"/>
<path d="M13.1048 7.05208H11.6882C10.6115 7.05208 9.74023 6.18083 9.74023 5.10417V3.6875C9.74023 3.39708 9.98107 3.15625 10.2715 3.15625C10.5619 3.15625 10.8027 3.39708 10.8027 3.6875V5.10417C10.8027 5.59292 11.1994 5.98958 11.6882 5.98958H13.1048C13.3952 5.98958 13.6361 6.23042 13.6361 6.52083C13.6361 6.81125 13.3952 7.05208 13.1048 7.05208Z" fill="#667085"/>
<path d="M8.49935 10.2393H5.66602C5.3756 10.2393 5.13477 9.99842 5.13477 9.70801C5.13477 9.41759 5.3756 9.17676 5.66602 9.17676H8.49935C8.78977 9.17676 9.0306 9.41759 9.0306 9.70801C9.0306 9.99842 8.78977 10.2393 8.49935 10.2393Z" fill="#667085"/>
<path d="M11.3327 13.0732H5.66602C5.3756 13.0732 5.13477 12.8324 5.13477 12.542C5.13477 12.2516 5.3756 12.0107 5.66602 12.0107H11.3327C11.6231 12.0107 11.8639 12.2516 11.8639 12.542C11.8639 12.8324 11.6231 13.0732 11.3327 13.0732Z" fill="#667085"/>
</svg>
