<svg width="75" height="75" viewBox="0 0 75 75" fill="none" xmlns="http://www.w3.org/2000/svg">
<circle cx="37.5" cy="37.5" r="37.5" fill="#2b8f65" fill-opacity="0.2"/>
<g clip-path="url(#clip0_391_679)">
<path fill-rule="evenodd" clip-rule="evenodd" d="M39 28.25C36.9288 28.25 35.25 29.9288 35.25 32C35.25 34.0712 36.9288 35.75 39 35.75C41.0712 35.75 42.75 34.0712 42.75 32C42.75 29.9288 41.0712 28.25 39 28.25ZM39 38.25C35.5487 38.25 32.75 35.4525 32.75 32C32.75 28.5475 35.5487 25.75 39 25.75C42.4513 25.75 45.25 28.5475 45.25 32C45.25 35.4525 42.4513 38.25 39 38.25ZM39 17C30.7163 17 24 23.7163 24 32C24 38.2725 36.5063 57.0137 39 57C41.455 57.0137 54 38.1875 54 32C54 23.7163 47.2838 17 39 17Z" fill="#2b8f65"/>
</g>
<defs>
<clipPath id="clip0_391_679">
<rect width="40" height="40" fill="white" transform="translate(18 17)"/>
</clipPath>
</defs>
</svg>
