<svg width="75" height="75" viewBox="0 0 75 75" fill="none" xmlns="http://www.w3.org/2000/svg">
<circle cx="37.5" cy="37.5" r="37.5" fill="#2b8f65" fill-opacity="0.2"/>
<path d="M52.4466 22.3066H23.5534C20.4865 22.3066 18 24.7931 18 27.86V46.14C18 49.2069 20.4865 51.6934 23.5534 51.6934H52.4466C55.5134 51.6934 58 49.2069 58 46.14V27.86C58 24.7931 55.5134 22.3066 52.4466 22.3066ZM31.9192 42.1344L24.1427 48.7687C23.5941 49.2369 22.7695 49.1718 22.3015 48.6227C21.8334 48.0742 21.8984 47.2496 22.4476 46.7816L30.2241 40.1472C30.7726 39.6791 31.5971 39.7441 32.0652 40.2933C32.5334 40.8417 32.4683 41.6663 31.9192 42.1344ZM38 39.6122C36.9598 39.6096 35.9516 39.264 35.1633 38.5823L35.1639 38.5829L35.1614 38.581C35.162 38.5816 35.1627 38.5816 35.1633 38.5823L23.2314 28.2261C22.6861 27.7528 22.628 26.9283 23.1006 26.3837C23.5738 25.8384 24.3984 25.7803 24.943 26.2529L36.8782 36.6116C37.1333 36.8387 37.5536 37.0026 38 37C38.4458 37.0013 38.859 36.8419 39.1281 36.6072L39.1339 36.6021L51.057 26.253C51.6016 25.7804 52.4262 25.8384 52.8994 26.3837C53.3719 26.9283 53.3139 27.7529 52.7686 28.2262L40.8334 38.5855C40.0477 39.2601 39.0408 39.6109 38 39.6122ZM53.6991 48.6227C53.2309 49.1718 52.4063 49.2369 51.858 48.7687L44.0814 42.1344C43.5323 41.6662 43.4673 40.8417 43.9354 40.2933C44.4034 39.7441 45.228 39.6791 45.7765 40.1472L53.553 46.7816C54.1021 47.2496 54.1672 48.0742 53.6991 48.6227Z" fill="#2b8f65"/>
</svg>
