<svg width="70" height="70" viewBox="0 0 70 70" fill="none" xmlns="http://www.w3.org/2000/svg">
<g clip-path="url(#clip0_516_996)">
<path d="M46.0756 67.4147V8.34553C46.0756 6.91736 44.9178 5.75977 43.4897 5.75977H7.37678C5.94861 5.75977 4.79102 6.9175 4.79102 8.34553V67.4147C4.79102 68.8429 5.94875 70.0005 7.37678 70.0005H43.4898C44.9178 70.0005 46.0756 68.8428 46.0756 67.4147Z" fill="#2b8f65"/>
<path d="M51.9686 5.75879H43.3145C44.7426 5.75879 45.9003 6.91652 45.9003 8.34455V67.4137C45.9003 68.8419 44.7426 69.9995 43.3145 69.9995H51.9686C53.3968 69.9995 54.5545 68.8418 54.5545 67.4137V8.34469C54.5545 6.91652 53.3968 5.75879 51.9686 5.75879Z" fill="#2b8f65"/>
<path d="M9.01758 64.8489V10.9096C9.01758 10.3991 9.43143 9.98535 9.9418 9.98535H49.4032C49.9137 9.98535 50.3274 10.3992 50.3274 10.9096V64.8489C50.3274 65.3595 49.9136 65.7732 49.4032 65.7732H9.9418C9.43129 65.7732 9.01758 65.3595 9.01758 64.8489Z" fill="#F5F5F5"/>
<path d="M49.4022 9.98535H40.748C41.2586 9.98535 41.6723 10.3992 41.6723 10.9096V64.8489C41.6723 65.3595 41.2584 65.7732 40.748 65.7732H49.4022C49.9127 65.7732 50.3264 65.3593 50.3264 64.8489V10.9096C50.3264 10.3992 49.9127 9.98535 49.4022 9.98535Z" fill="#EAEAEA"/>
<path d="M35.1645 3.21809V1.85678C35.1645 0.831387 34.3333 0 33.3077 0H26.0347C25.0092 0 24.1779 0.831387 24.1779 1.85678V3.21809C24.1779 3.6374 23.8379 3.97742 23.4186 3.97742H20.3916C19.3847 3.97742 18.5684 4.79377 18.5684 5.8007V9.98566H40.7741V5.8007C40.7741 4.79377 39.9577 3.97742 38.9508 3.97742H35.9238C35.5045 3.97742 35.1645 3.6374 35.1645 3.21809Z" fill="#C2D0DA"/>
<path d="M14.3945 24.9907V16.8507C14.3945 15.9489 15.1257 15.2178 16.0275 15.2178H24.1675C25.0693 15.2178 25.8004 15.9489 25.8004 16.8507V24.9907C25.8004 25.8925 25.0693 26.6237 24.1675 26.6237H16.0275C15.1256 26.6237 14.3945 25.8925 14.3945 24.9907Z" fill="#2b8f65"/>
<path d="M14.3945 41.9497V33.8097C14.3945 32.9079 15.1257 32.1768 16.0275 32.1768H24.1675C25.0693 32.1768 25.8004 32.9079 25.8004 33.8097V41.9497C25.8004 42.8515 25.0693 43.5827 24.1675 43.5827H16.0275C15.1256 43.5827 14.3945 42.8515 14.3945 41.9497Z" fill="#2b8f65"/>
<path d="M14.3945 58.9077V50.7677C14.3945 49.8659 15.1257 49.1348 16.0275 49.1348H24.1675C25.0693 49.1348 25.8004 49.8659 25.8004 50.7677V58.9077C25.8004 59.8095 25.0693 60.5407 24.1675 60.5407H16.0275C15.1256 60.5407 14.3945 59.8096 14.3945 58.9077Z" fill="#2b8f65"/>
<path d="M19.408 23.8353C19.4068 23.8353 19.4057 23.8353 19.4044 23.8353C18.9381 23.8342 18.4958 23.6084 18.2211 23.2314L16.9877 21.5375C16.6442 21.0658 16.7481 20.405 17.2198 20.0616C17.6915 19.7183 18.3522 19.8222 18.6955 20.2937L19.4107 21.2761L21.5018 18.4351C21.8477 17.9652 22.5089 17.8648 22.9787 18.2106C23.4486 18.5563 23.5491 19.2176 23.2032 19.6875L20.5902 23.2374C20.3147 23.6119 19.8728 23.8353 19.408 23.8353Z" fill="#F6F9F9"/>
<path d="M19.4079 41.1634C19.4065 41.1634 19.4053 41.1634 19.404 41.1634C18.9377 41.1622 18.4954 40.9364 18.2209 40.5592L16.9877 38.8656C16.6442 38.3939 16.7481 37.7331 17.2198 37.3897C17.6915 37.0464 18.3522 37.1503 18.6955 37.6218L19.4107 38.6042L21.5018 35.7631C21.8477 35.2934 22.5089 35.1929 22.9787 35.5386C23.4486 35.8844 23.5491 36.5457 23.2032 37.0156L20.5902 40.5655C20.3147 40.9403 19.8728 41.1634 19.4079 41.1634Z" fill="#F6F9F9"/>
<path d="M19.4078 57.7532C19.4066 57.7532 19.4053 57.7532 19.4042 57.7531C18.938 57.752 18.4956 57.5263 18.2211 57.1495L16.9876 55.4553C16.6442 54.9836 16.7482 54.323 17.2199 53.9795C17.6918 53.6361 18.3523 53.7403 18.6956 54.2118L19.4107 55.194L21.5019 52.353C21.8478 51.8832 22.509 51.7827 22.9788 52.1285C23.4487 52.4743 23.5492 53.1356 23.2033 53.6055L20.5903 57.1554C20.3145 57.5298 19.8728 57.7532 19.4078 57.7532Z" fill="#F6F9F9"/>
<path d="M44.1208 19.7698H31.0621C30.4788 19.7698 30.0059 19.2969 30.0059 18.7135C30.0059 18.1301 30.4788 17.6572 31.0621 17.6572H44.1208C44.7042 17.6572 45.1771 18.1301 45.1771 18.7135C45.1771 19.2969 44.7042 19.7698 44.1208 19.7698Z" fill="#DDEAFB"/>
<path d="M37.5895 24.1839H31.0602C30.4768 24.1839 30.0039 23.711 30.0039 23.1276C30.0039 22.5442 30.4768 22.0713 31.0602 22.0713H37.5895C38.1728 22.0713 38.6458 22.5442 38.6458 23.1276C38.6458 23.711 38.1728 24.1839 37.5895 24.1839Z" fill="#DDEAFB"/>
<path d="M39.822 36.7288H31.0602C30.4768 36.7288 30.0039 36.2559 30.0039 35.6725C30.0039 35.0891 30.4768 34.6162 31.0602 34.6162H39.822C40.4053 34.6162 40.8782 35.0891 40.8782 35.6725C40.8782 36.2559 40.4053 36.7288 39.822 36.7288Z" fill="#DDEAFB"/>
<path d="M37.5895 41.1429H31.0602C30.4768 41.1429 30.0039 40.6699 30.0039 40.0866C30.0039 39.5032 30.4768 39.0303 31.0602 39.0303H37.5895C38.1728 39.0303 38.6458 39.5032 38.6458 40.0866C38.6458 40.6699 38.1728 41.1429 37.5895 41.1429Z" fill="#DDEAFB"/>
<path d="M61.0996 27.5784L60.0625 26.2121L56.1817 23.7545L54.69 23.5195L34.8186 54.9201C34.3391 55.6773 33.9873 56.5081 33.7773 57.3793C36.1951 57.4092 38.3896 58.7988 39.4504 60.9717C40.1482 60.4094 40.7488 59.7362 41.2282 58.979L61.0996 27.5784Z" fill="#FFD188"/>
<path d="M63.9042 17.909L62.2273 16.8471C60.9202 16.0192 59.1893 16.4082 58.3619 17.7156L56.8242 20.1455L57.3148 21.1344L61.981 24.0893L63.234 24.2044L64.7726 21.773C65.5995 20.4663 65.2108 18.7364 63.9042 17.909Z" fill="#8C9BA6"/>
<path d="M54.6934 23.5107L56.8295 20.1368L63.2404 24.1957L61.1042 27.5697L54.6934 23.5107Z" fill="#C9E2E7"/>
<path d="M39.4508 60.9723L33.7927 65.5319C32.9945 66.1751 31.8349 65.4408 32.0751 64.4443L33.7778 57.3799C36.1955 57.4097 38.3901 58.7994 39.4508 60.9723Z" fill="#7C8B96"/>
<path d="M37.9665 59.0147L58.7968 26.1205L57.012 24.9902L36.1816 57.8845C36.8352 58.1598 37.4381 58.5417 37.9665 59.0147Z" fill="#FCB849"/>
</g>
<defs>
<clipPath id="clip0_516_996">
<rect width="70" height="70" fill="white"/>
</clipPath>
</defs>
</svg>
