<svg width="75" height="75" viewBox="0 0 75 75" fill="none" xmlns="http://www.w3.org/2000/svg">
<circle cx="37.5" cy="37.5" r="37.5" fill="#2b8f65" fill-opacity="0.2"/>
<path d="M43.927 41.2462L43.1678 42.0453C43.1678 42.0453 41.3635 43.945 36.4385 38.7598C31.5135 33.5747 33.3178 31.6751 33.3178 31.6751L33.7959 31.1719C34.9735 29.9321 35.0845 27.9416 34.0571 26.4885L31.9554 23.516C30.6838 21.7175 28.2266 21.4799 26.7691 23.0144L24.1531 25.7686C23.4304 26.5294 22.9461 27.5157 23.0048 28.6099C23.1551 31.4091 24.3512 37.4317 31.0256 44.4587C38.1035 51.9103 44.7447 52.2065 47.4605 51.9385C48.3195 51.8537 49.0665 51.3905 49.6685 50.7567L52.0362 48.264C53.6343 46.5815 53.1837 43.697 51.1388 42.52L47.9547 40.6872C46.612 39.9143 44.9763 40.1413 43.927 41.2462Z" fill="#2b8f65"/>
<path d="M40.0998 20.1327C40.2101 19.4512 40.8543 18.989 41.5358 19.0993C41.578 19.1074 41.7138 19.1327 41.7848 19.1486C41.9271 19.1802 42.1255 19.229 42.3728 19.301C42.8675 19.4451 43.5585 19.6825 44.3878 20.0627C46.0483 20.8239 48.258 22.1556 50.551 24.4486C52.844 26.7416 54.1756 28.9513 54.9368 30.6118C55.3171 31.4411 55.5545 32.1321 55.6985 32.6268C55.7705 32.8741 55.8193 33.0725 55.851 33.2147C55.8668 33.2858 55.8785 33.3429 55.8865 33.3851L55.8961 33.4371C56.0063 34.1185 55.5483 34.7895 54.8668 34.8999C54.1873 35.0099 53.5471 34.5497 53.4341 33.8715C53.4306 33.8532 53.421 33.8044 53.4108 33.7582C53.3901 33.6659 53.3546 33.5195 53.2983 33.3259C53.1855 32.9387 52.9896 32.3631 52.6643 31.6537C52.0146 30.2365 50.8463 28.2795 48.7831 26.2164C46.7201 24.1533 44.7631 22.985 43.346 22.3352C42.6365 22.01 42.061 21.8141 41.6736 21.7013C41.4801 21.6449 41.2368 21.5891 41.1445 21.5685C40.4661 21.4555 39.9898 20.8123 40.0998 20.1327Z" fill="#2b8f65"/>
<path fill-rule="evenodd" clip-rule="evenodd" d="M40.4761 25.8825C40.6658 25.2187 41.3576 24.8344 42.0215 25.024L41.6781 26.2259C42.0215 25.024 42.0215 25.024 42.0215 25.024L42.024 25.0247L42.0265 25.0254L42.032 25.0271L42.045 25.0309L42.078 25.0412C42.103 25.0492 42.1345 25.0597 42.1718 25.073C42.2466 25.0995 42.3456 25.1373 42.467 25.1893C42.7098 25.2934 43.0415 25.4541 43.4491 25.6953C44.2648 26.1781 45.3785 26.98 46.6868 28.2883C47.9951 29.5966 48.797 30.7102 49.2798 31.526C49.521 31.9335 49.6816 32.2653 49.7858 32.5081C49.8378 32.6294 49.8756 32.7284 49.9021 32.8032C49.9155 32.8406 49.9258 32.872 49.934 32.8972L49.9441 32.9301L49.948 32.9431L49.9496 32.9486L49.9503 32.9512C49.9503 32.9512 49.9511 32.9536 48.7491 33.297L49.9511 32.9536C50.1408 33.6174 49.7563 34.3092 49.0926 34.4988C48.4345 34.6868 47.7486 34.3107 47.5521 33.6572L47.546 33.6393C47.5371 33.6142 47.5188 33.5649 47.488 33.4929C47.4263 33.349 47.3145 33.1136 47.1285 32.7993C46.7568 32.1714 46.0856 31.2227 44.919 30.0561C43.7525 28.8895 42.8036 28.2183 42.1758 27.8467C41.8615 27.6607 41.6261 27.5488 41.4821 27.4872C41.4101 27.4563 41.3608 27.4379 41.3358 27.429L41.3178 27.4229C40.6645 27.2264 40.2881 26.5407 40.4761 25.8825Z" fill="#2b8f65"/>
</svg>
